# xmcd
#
# Track frame offsets:
#	150
#	19352
#	42542
#	59454
#	87057
#	110312
#	133643
#	152637
#	175066
#	191886
#	212685
#	225659
#	245021
#
# Disc length: 3543 seconds
#
# Revision: 1
# Processed by: cddbd v1.5.2PL0 Copyright (c) Steve Scherf et al.
# Submitted via: audiograbber 1.83.01
#
DISCID=b20dd50d
DTITLE=Boca do Rio - Boca do Rio
DYEAR=1900
DGENRE=Elbo Room Samba
TTITLE0=Time Alone
TTITLE1=Sweet SEed
TTITLE2=Pra BAhia
TTITLE3=Eurydice Arising
TTITLE4=Os Outros Malandros
TTITLE5=Não me Atrevo
TTITLE6=My Samba
TTITLE7=Shades of Burgundy
TTITLE8=Samba Funeral
TTITLE9=Beija Quem,
TTITLE10=Perto da Foguera
TTITLE11=Mulher Preguiçosa
TTITLE12=Atabaque
EXTD=
EXTT0=
EXTT1=
EXTT2=
EXTT3=
EXTT4=
EXTT5=
EXTT6=
EXTT7=
EXTT8=
EXTT9=
EXTT10=
EXTT11=
EXTT12=
PLAYORDER=
